<svg viewBox="0 0 47 47" xmlns="http://www.w3.org/2000/svg"><path d="M10.744 26.727c0 .02-.02.04-.059.079L5.322 29.09h-.02s-.02 0-.04-.02L.946 24.775c-.02-.02-.04-.06-.02-.078.02-.02.04-.04.06-.04h.019l9.681 2.012c.04 0 .06.02.06.058zm.513-1.347c-.02 0-.02 0 0 0L.097 23.037c-.04 0-.059-.02-.059-.04 0-.018 0-.038.02-.057l6.23-6.17c0-.02.02-.02.04-.02.039.02.039.02.06.039 0 .02 5.342 7.752 5.402 7.83.02.02.02.059 0 .078-.178.195-.356.41-.473.644-.02.019-.04.04-.06.04zm2.327-15.717c-.02-.02-.04-.02-.02-.059 0-.02 0-.038.02-.059L22.97.213c0-.02.02-.02.04-.02s.02 0 .04.02l4.041 4.003c.02.019.02.058 0 .078l-4.87 7.556c-.02.019-.04.039-.06.039h-.019a2.398 2.398 0 00-2.248.41c-.02.02-.02.02-.039.02h-.02c-.256-.118-6.25-2.656-6.25-2.656zm-.572 14.291l-5.6-8.18c-.02-.019-.02-.058 0-.078l5.028-4.998c0-.02.02-.02.04-.02h.02c0 .02 5.934 2.519 6.605 2.812.019.02.04.038.04.078a2.298 2.298 0 00.592 2.128c.018.02.018.06-.001.078l-5.284 8.2c-.02.02-.04.04-.06.04h-.02a2.64 2.64 0 00-.67-.098c-.198 0-.414.038-.611.078h-.02c-.02 0-.039-.02-.06-.04zm1.834 5.096l10.45 15.19c.02.02.02.059 0 .079l-2.287 2.284c0 .02-.02.02-.04.02 0 0-.02 0-.04-.02L9.878 33.658c-.02-.019-.02-.058 0-.078l.02-.02 2.84-4.412c.019-.019.039-.039.058-.039h.02c.295.098.572.137.867.137.375 0 .73-.079 1.085-.234h.02c.02 0 .04.02.059.038zm-3.234-.76c.02.018.02.038.02.038L8.93 32.525c-.02.02-.04.04-.058.04 0 0-.02 0-.04-.02l-2.386-2.362c-.02-.02-.02-.04-.02-.058 0-.02.02-.04.04-.04l4.89-2.089h.02c.019 0 .039.02.058.039.06.098.119.176.178.255zm4.752-1.895c0-.156-.04-.293-.06-.449 0-.04 0-.059.04-.077l14.02-5.995h.02s.019 0 .039.02c.098.097.177.156.256.214.04 0 .04.04.04.06l-1.223 7.515c0 .04-.02.06-.06.06-.67.038-1.262.43-1.596 1.015-.02.019-.04.04-.06.04h-.02l-11.337-2.344c-.04 0-.06-.02-.06-.059zm12.442 5.175c.04.018.04.058 0 .058L27.03 42.56c0 .02-.02.02-.02.04l-.631.624c0 .02-.02.02-.039.02-.02 0-.02 0-.04-.02l-10.41-15.072c-.02-.02-.02-.06 0-.078.06-.079.098-.157.158-.254.019-.02.039-.04.058-.04h.02l11.436 2.363c.04.02.06.04.06.058a2.016 2.016 0 001.183 1.368zm8.616.625c.02 0 .04.018.04.077 0 .02 0 .04-.02.058l-8.557 8.494c0 .02-.02.02-.04.02h-.04c-.02-.02-.039-.04-.039-.079l1.48-9.098c0-.02.019-.059.038-.059a2.12 2.12 0 00.888-.664c.019 0 .04-.019.06-.019h.019l6.171 1.27zm-7.65-14.175c.02.019.04.038.04.077-.02.098-.04.215-.04.332v.176c0 .02-.02.039-.04.058l-13.94 5.955h-.02c-.02 0-.04 0-.059-.018-.02-.02-.02-.06 0-.08l5.226-8.102c.019-.02.039-.039.058-.039h.02c.138.02.257.039.375.039.789 0 1.518-.39 1.952-1.054.02-.02.04-.039.059-.039h.02l6.348 2.695zm15.38 6.52c.019.02.019.04.019.06 0 .018 0 .038-.02.058l-6.428 6.384c0 .02-.019.02-.04.02h-.018l-7.02-1.465c-.04 0-.06-.02-.06-.058a1.96 1.96 0 00-.749-1.367c-.02-.02-.02-.04-.02-.059l1.243-7.634c0-.038.04-.059.059-.059a1.976 1.976 0 001.341-.78c.02-.02.04-.02.06-.02h.019l11.614 4.92zm1.202-1.171c.04.02.04.078 0 .078l-.04.039c0 .02-.02.02-.039.02h-.02L34.15 18.37c-.02 0-.04-.038-.04-.058 0-.019.02-.04.04-.058l4.91-2.09h.02s.02 0 .039.02l7.236 7.185zm-23.03-10.563c-.02-.02-.02-.058 0-.098l4.752-7.38c0-.019.02-.038.04-.038s.02 0 .039.02l4.22 4.197c.02.02.02.038.02.059l-1.105 6.852c0 .04-.02.059-.04.059a2.084 2.084 0 00-.69.351c0 .02-.019.02-.039.02h-.02l-6.743-2.87c-.02-.02-.04-.039-.04-.06a2.516 2.516 0 00-.394-1.112zm9.405 3.807c-.02 0-.04-.039-.059-.058l.927-5.681c0-.04.02-.06.04-.06h.02s.018 0 .039.02l4.239 4.198c.02.02.02.04.02.059 0 .019-.02.038-.04.058l-4.535 1.933h-.02c-.02 0-.02 0-.04-.02a1.963 1.963 0 00-.591-.449z" fill="#30c9c9" fill-rule="nonzero"/></svg>
