<svg version="1.1" id="Layer_1" xmlns="http://www.w3.org/2000/svg" xmlns:xlink="http://www.w3.org/1999/xlink" x="0px" y="0px"
   viewBox="0 0 24 24" xml:space="preserve" fill="currentColor">
   <path d="M5.7,21C2,21,0,18,0,14.8C0,6.3,6,3.3,10.1,3v4.2C8,7.4,5.1,9.1,4.9,11.9c0.1-0.1,0.7-0.3,1.4-0.3c3.1,0,4.8,2,4.8,4.7
     C11,18.9,8.8,21,5.7,21z M18.7,21C15,21,13,18,13,14.8C13,6.3,19,3.3,23.1,3v4.2c-2.2,0.2-5.1,1.9-5.2,4.7c0.1-0.1,0.7-0.3,1.4-0.3
     c3.1,0,4.8,2,4.8,4.7C24,18.9,21.8,21,18.7,21z"/>
</svg>
