<svg xmlns="http://www.w3.org/2000/svg" xmlns:xlink="http://www.w3.org/1999/xlink" viewBox="0 0 500 500" preserveAspectRatio="xMidYMid slice"><g mask="url(&quot;#SvgjsMask1130&quot;)" fill="none" stroke="#fff" stroke-opacity="0.5"><use xlink:href="#SvgjsPath1131" x="30" y="30"/><use xlink:href="#SvgjsPath1131" x="30" y="90"/><use xlink:href="#SvgjsPath1132" x="30" y="150"/><use xlink:href="#SvgjsPath1133" x="30" y="210"/><use xlink:href="#SvgjsPath1131" x="30" y="270"/><use xlink:href="#SvgjsPath1133" x="30" y="330"/><use xlink:href="#SvgjsPath1133" x="30" y="390"/><use xlink:href="#SvgjsPath1132" x="30" y="450"/><use xlink:href="#SvgjsPath1134" x="30" y="510"/><use xlink:href="#SvgjsPath1135" x="90" y="30"/><use xlink:href="#SvgjsPath1133" x="90" y="90"/><use xlink:href="#SvgjsPath1134" x="90" y="150"/><use xlink:href="#SvgjsPath1132" x="90" y="210"/><use xlink:href="#SvgjsPath1134" x="90" y="270"/><use xlink:href="#SvgjsPath1131" x="90" y="330"/><use xlink:href="#SvgjsPath1136" x="90" y="390" stroke-width="3"/><use xlink:href="#SvgjsPath1133" x="90" y="450"/><use xlink:href="#SvgjsPath1131" x="90" y="510"/><use xlink:href="#SvgjsPath1133" x="150" y="30"/><use xlink:href="#SvgjsPath1133" x="150" y="90"/><use xlink:href="#SvgjsPath1131" x="150" y="150"/><use xlink:href="#SvgjsPath1131" x="150" y="210"/><use xlink:href="#SvgjsPath1135" x="150" y="270"/><use xlink:href="#SvgjsPath1133" x="150" y="330"/><use xlink:href="#SvgjsPath1132" x="150" y="390"/><use xlink:href="#SvgjsPath1133" x="150" y="450"/><use xlink:href="#SvgjsPath1133" x="150" y="510"/><use xlink:href="#SvgjsPath1131" x="210" y="30"/><use xlink:href="#SvgjsPath1133" x="210" y="90"/><use xlink:href="#SvgjsPath1133" x="210" y="150"/><use xlink:href="#SvgjsPath1131" x="210" y="210"/><use xlink:href="#SvgjsPath1135" x="210" y="270"/><use xlink:href="#SvgjsPath1135" x="210" y="330"/><use xlink:href="#SvgjsPath1135" x="210" y="390"/><use xlink:href="#SvgjsPath1133" x="210" y="450"/><use xlink:href="#SvgjsPath1131" x="210" y="510"/><use xlink:href="#SvgjsPath1135" x="270" y="30"/><use xlink:href="#SvgjsPath1133" x="270" y="90"/><use xlink:href="#SvgjsPath1132" x="270" y="150"/><use xlink:href="#SvgjsPath1133" x="270" y="210"/><use xlink:href="#SvgjsPath1131" x="270" y="270"/><use xlink:href="#SvgjsPath1131" x="270" y="330"/><use xlink:href="#SvgjsPath1133" x="270" y="390"/><use xlink:href="#SvgjsPath1134" x="270" y="450"/><use xlink:href="#SvgjsPath1133" x="270" y="510"/><use xlink:href="#SvgjsPath1131" x="330" y="30"/><use xlink:href="#SvgjsPath1131" x="330" y="90"/><use xlink:href="#SvgjsPath1133" x="330" y="150"/><use xlink:href="#SvgjsPath1131" x="330" y="210"/><use xlink:href="#SvgjsPath1131" x="330" y="270"/><use xlink:href="#SvgjsPath1131" x="330" y="330"/><use xlink:href="#SvgjsPath1131" x="330" y="390"/><use xlink:href="#SvgjsPath1132" x="330" y="450"/><use xlink:href="#SvgjsPath1133" x="330" y="510"/><use xlink:href="#SvgjsPath1133" x="390" y="30"/><use xlink:href="#SvgjsPath1134" x="390" y="90"/><use xlink:href="#SvgjsPath1136" x="390" y="150" stroke-width="3"/><use xlink:href="#SvgjsPath1132" x="390" y="210"/><use xlink:href="#SvgjsPath1131" x="390" y="270"/><use xlink:href="#SvgjsPath1136" x="390" y="330" stroke-width="3"/><use xlink:href="#SvgjsPath1135" x="390" y="390"/><use xlink:href="#SvgjsPath1134" x="390" y="450"/><use xlink:href="#SvgjsPath1131" x="390" y="510"/><use xlink:href="#SvgjsPath1134" x="450" y="30"/><use xlink:href="#SvgjsPath1131" x="450" y="90"/><use xlink:href="#SvgjsPath1131" x="450" y="150"/><use xlink:href="#SvgjsPath1133" x="450" y="210"/><use xlink:href="#SvgjsPath1136" x="450" y="270" stroke-width="3"/><use xlink:href="#SvgjsPath1133" x="450" y="330"/><use xlink:href="#SvgjsPath1134" x="450" y="390"/><use xlink:href="#SvgjsPath1133" x="450" y="450"/><use xlink:href="#SvgjsPath1134" x="450" y="510"/><use xlink:href="#SvgjsPath1136" x="510" y="30" stroke-width="3"/><use xlink:href="#SvgjsPath1134" x="510" y="90"/><use xlink:href="#SvgjsPath1133" x="510" y="150"/><use xlink:href="#SvgjsPath1133" x="510" y="210"/><use xlink:href="#SvgjsPath1131" x="510" y="270"/><use xlink:href="#SvgjsPath1135" x="510" y="330"/><use xlink:href="#SvgjsPath1133" x="510" y="390"/><use xlink:href="#SvgjsPath1136" x="510" y="450" stroke-width="3"/><use xlink:href="#SvgjsPath1136" x="510" y="510" stroke-width="3"/></g><defs><path d="M-1 0a1 1 0 102 0 1 1 0 10-2 0z" id="SvgjsPath1135"/><path d="M-3 0a3 3 0 106 0 3 3 0 10-6 0z" id="SvgjsPath1132"/><path d="M-5 0A5 5 0 105 0 5 5 0 10-5 0z" id="SvgjsPath1133"/><path d="M2-2l-4 4z" id="SvgjsPath1134"/><path d="M6-6L-6 6z" id="SvgjsPath1131"/><path d="M30-30l-60 60z" id="SvgjsPath1136"/><mask id="SvgjsMask1130"><path fill="#fff" fill-opacity="0.5" d="M0 0h500v500H0z"/></mask></defs></svg>
