<svg xmlns="http://www.w3.org/2000/svg" viewBox="0 0 800 800"><g stroke-width="3.5" stroke="rgba(255, 255, 255, 0.15)" fill="none"><path d="M54 0 0 54M108 0 54 54M162 0l-54 54M162 0l54 54M216 0l54 54M324 0l-54 54M378 0l-54 54M378 0l54 54M432 0l54 54M540 0l-54 54M594 0l-54 54M648 0l-54 54M702 0l-54 54M756 0l-54 54M810 0l-54 54"/><path opacity=".94" d="M54 54 0 108M108 54l-54 54M108 54l54 54M216 54l-54 54M270 54l-54 54M270 54l54 54M378 54l-54 54M378 54l54 54M432 54l54 54M540 54l-54 54M540 54l54 54M594 54l54 54M648 54l54 54M756 54l-54 54M810 54l-54 54"/><path opacity=".87" d="M54 108 0 162M108 108l-54 54M162 108l-54 54M162 108l54 54M270 108l-54 54M270 108l54 54M378 108l-54 54M432 108l-54 54M486 108l-54 54M486 108l54 54M594 108l-54 54M594 108l54 54M702 108l-54 54M756 108l-54 54M756 108l54 54"/><path opacity=".81" d="m0 162 54 54M108 162l-54 54M162 162l-54 54M216 162l-54 54M270 162l-54 54M270 162l54 54M378 162l-54 54M378 162l54 54M486 162l-54 54M486 162l54 54M540 162l54 54M594 162l54 54M648 162l54 54M756 162l-54 54M756 162l54 54"/><path opacity=".74" d="M54 216 0 270M54 216l54 54M108 216l54 54M216 216l-54 54M216 216l54 54M324 216l-54 54M324 216l54 54M432 216l-54 54M432 216l54 54M486 216l54 54M594 216l-54 54M648 216l-54 54M702 216l-54 54M702 216l54 54M810 216l-54 54"/><path opacity=".68" d="M54 270 0 324M108 270l-54 54M108 270l54 54M216 270l-54 54M270 270l-54 54M270 270l54 54M324 270l54 54M432 270l-54 54M432 270l54 54M486 270l54 54M540 270l54 54M648 270l-54 54M648 270l54 54M702 270l54 54M810 270l-54 54"/><path opacity=".62" d="m0 324 54 54M54 324l54 54M108 324l54 54M162 324l54 54M270 324l-54 54M324 324l-54 54M324 324l54 54M432 324l-54 54M486 324l-54 54M486 324l54 54M540 324l54 54M648 324l-54 54M648 324l54 54M756 324l-54 54M810 324l-54 54"/><path opacity=".55" d="M54 378 0 432M108 378l-54 54M108 378l54 54M216 378l-54 54M216 378l54 54M270 378l54 54M324 378l54 54M378 378l54 54M486 378l-54 54M486 378l54 54M594 378l-54 54M648 378l-54 54M648 378l54 54M756 378l-54 54M756 378l54 54"/><path opacity=".49" d="m0 432 54 54M108 432l-54 54M162 432l-54 54M162 432l54 54M270 432l-54 54M324 432l-54 54M324 432l54 54M432 432l-54 54M486 432l-54 54M486 432l54 54M540 432l54 54M648 432l-54 54M648 432l54 54M702 432l54 54M810 432l-54 54"/><path opacity=".42" d="M54 486 0 540M108 486l-54 54M108 486l54 54M216 486l-54 54M270 486l-54 54M270 486l54 54M324 486l54 54M378 486l54 54M432 486l54 54M486 486l54 54M594 486l-54 54M648 486l-54 54M648 486l54 54M702 486l54 54M756 486l54 54"/><path opacity=".36" d="m0 540 54 54M108 540l-54 54M108 540l54 54M162 540l54 54M270 540l-54 54M270 540l54 54M324 540l54 54M378 540l54 54M432 540l54 54M540 540l-54 54M594 540l-54 54M594 540l54 54M702 540l-54 54M702 540l54 54M810 540l-54 54"/><path opacity=".29" d="m0 594 54 54M108 594l-54 54M108 594l54 54M216 594l-54 54M216 594l54 54M324 594l-54 54M378 594l-54 54M378 594l54 54M432 594l54 54M540 594l-54 54M540 594l54 54M594 594l54 54M702 594l-54 54M756 594l-54 54M810 594l-54 54"/><path opacity=".23" d="m0 648 54 54M108 648l-54 54M108 648l54 54M162 648l54 54M270 648l-54 54M270 648l54 54M378 648l-54 54M378 648l54 54M486 648l-54 54M540 648l-54 54M594 648l-54 54M648 648l-54 54M702 648l-54 54M756 648l-54 54M810 648l-54 54"/><path opacity=".17" d="m0 702 54 54M54 702l54 54M108 702l54 54M162 702l54 54M216 702l54 54M270 702l54 54M378 702l-54 54M432 702l-54 54M432 702l54 54M540 702l-54 54M594 702l-54 54M648 702l-54 54M648 702l54 54M702 702l54 54M810 702l-54 54"/><path opacity=".1" d="M54 756 0 810M54 756l54 54M162 756l-54 54M216 756l-54 54M216 756l54 54M270 756l54 54M378 756l-54 54M432 756l-54 54M432 756l54 54M540 756l-54 54M540 756l54 54M648 756l-54 54M648 756l54 54M756 756l-54 54M756 756l54 54"/></g></svg>
