<svg xmlns="http://www.w3.org/2000/svg" viewBox="0 0 800 800"><defs><linearGradient gradientTransform="rotate(270)" x1="50%" y1="0%" x2="50%" y2="100%" id="a"><stop stop-color="hsla(0, 0%, 100%, 0.50)" offset="0%"/><stop stop-color="hsla(0, 0%, 100%, 0.125)" offset="100%"/></linearGradient></defs><g stroke-width="2" stroke="url(#a)" fill="none" stroke-linecap="round" transform="translate(0 52.82)"><path d="M10 10c11.806 1.875 30.972 16.292 56.667 9 25.694-7.292 38.889-49 66.666-44 27.778 5 38.89 68.208 66.667 68 27.778-.208 38.889-67.333 66.667-69 27.777-1.667 38.889 56.833 66.666 61C361.111 39.167 372.223-8.917 400-6c27.778 2.917 38.889 56.25 66.667 55 27.777-1.25 38.889-59.958 66.666-61 27.778-1.042 38.89 56.208 66.667 56 27.778-.208 38.889-59.292 66.667-57 27.777 2.292 40.972 63.208 66.666 68 25.695 4.792 44.861-35.625 56.667-45M10 675c11.806 1.875 30.972 16.292 56.667 9 25.694-7.292 38.889-49 66.666-44 27.778 5 38.89 68.208 66.667 68 27.778-.208 38.889-67.333 66.667-69 27.777-1.667 38.889 56.833 66.666 61 27.778 4.167 38.89-43.917 66.667-41 27.778 2.917 38.889 56.25 66.667 55 27.777-1.25 38.889-59.958 66.666-61 27.778-1.042 38.89 56.208 66.667 56 27.778-.208 38.889-59.292 66.667-57 27.777 2.292 40.972 63.208 66.666 68 25.695 4.792 44.861-35.625 56.667-45"/><path d="M10 640c11.806 1.875 30.972 16.292 56.667 9 25.694-7.292 38.889-49 66.666-44 27.778 5 38.89 68.208 66.667 68 27.778-.208 38.889-67.333 66.667-69 27.777-1.667 38.889 56.833 66.666 61 27.778 4.167 38.89-43.917 66.667-41 27.778 2.917 38.889 56.25 66.667 55 27.777-1.25 38.889-59.958 66.666-61 27.778-1.042 38.89 56.208 66.667 56 27.778-.208 38.889-59.292 66.667-57 27.777 2.292 40.972 63.208 66.666 68 25.695 4.792 44.861-35.625 56.667-45"/><path d="M10 605c11.806 1.875 30.972 16.292 56.667 9 25.694-7.292 38.889-49 66.666-44 27.778 5 38.89 68.208 66.667 68 27.778-.208 38.889-67.333 66.667-69 27.777-1.667 38.889 56.833 66.666 61 27.778 4.167 38.89-43.917 66.667-41 27.778 2.917 38.889 56.25 66.667 55 27.777-1.25 38.889-59.958 66.666-61 27.778-1.042 38.89 56.208 66.667 56 27.778-.208 38.889-59.292 66.667-57 27.777 2.292 40.972 63.208 66.666 68 25.695 4.792 44.861-35.625 56.667-45"/><path d="M10 570c11.806 1.875 30.972 16.292 56.667 9 25.694-7.292 38.889-49 66.666-44 27.778 5 38.89 68.208 66.667 68 27.778-.208 38.889-67.333 66.667-69 27.777-1.667 38.889 56.833 66.666 61 27.778 4.167 38.89-43.917 66.667-41 27.778 2.917 38.889 56.25 66.667 55 27.777-1.25 38.889-59.958 66.666-61 27.778-1.042 38.89 56.208 66.667 56 27.778-.208 38.889-59.292 66.667-57 27.777 2.292 40.972 63.208 66.666 68 25.695 4.792 44.861-35.625 56.667-45"/><path d="M10 535c11.806 1.875 30.972 16.292 56.667 9 25.694-7.292 38.889-49 66.666-44 27.778 5 38.89 68.208 66.667 68 27.778-.208 38.889-67.333 66.667-69 27.777-1.667 38.889 56.833 66.666 61 27.778 4.167 38.89-43.917 66.667-41 27.778 2.917 38.889 56.25 66.667 55 27.777-1.25 38.889-59.958 66.666-61 27.778-1.042 38.89 56.208 66.667 56 27.778-.208 38.889-59.292 66.667-57 27.777 2.292 40.972 63.208 66.666 68 25.695 4.792 44.861-35.625 56.667-45"/><path d="M10 500c11.806 1.875 30.972 16.292 56.667 9 25.694-7.292 38.889-49 66.666-44 27.778 5 38.89 68.208 66.667 68 27.778-.208 38.889-67.333 66.667-69 27.777-1.667 38.889 56.833 66.666 61 27.778 4.167 38.89-43.917 66.667-41 27.778 2.917 38.889 56.25 66.667 55 27.777-1.25 38.889-59.958 66.666-61 27.778-1.042 38.89 56.208 66.667 56 27.778-.208 38.889-59.292 66.667-57 27.777 2.292 40.972 63.208 66.666 68 25.695 4.792 44.861-35.625 56.667-45"/><path d="M10 465c11.806 1.875 30.972 16.292 56.667 9 25.694-7.292 38.889-49 66.666-44 27.778 5 38.89 68.208 66.667 68 27.778-.208 38.889-67.333 66.667-69 27.777-1.667 38.889 56.833 66.666 61 27.778 4.167 38.89-43.917 66.667-41 27.778 2.917 38.889 56.25 66.667 55 27.777-1.25 38.889-59.958 66.666-61 27.778-1.042 38.89 56.208 66.667 56 27.778-.208 38.889-59.292 66.667-57 27.777 2.292 40.972 63.208 66.666 68 25.695 4.792 44.861-35.625 56.667-45"/><path d="M10 430c11.806 1.875 30.972 16.292 56.667 9 25.694-7.292 38.889-49 66.666-44 27.778 5 38.89 68.208 66.667 68 27.778-.208 38.889-67.333 66.667-69 27.777-1.667 38.889 56.833 66.666 61 27.778 4.167 38.89-43.917 66.667-41 27.778 2.917 38.889 56.25 66.667 55 27.777-1.25 38.889-59.958 66.666-61 27.778-1.042 38.89 56.208 66.667 56 27.778-.208 38.889-59.292 66.667-57 27.777 2.292 40.972 63.208 66.666 68 25.695 4.792 44.861-35.625 56.667-45"/><path d="M10 395c11.806 1.875 30.972 16.292 56.667 9 25.694-7.292 38.889-49 66.666-44 27.778 5 38.89 68.208 66.667 68 27.778-.208 38.889-67.333 66.667-69 27.777-1.667 38.889 56.833 66.666 61 27.778 4.167 38.89-43.917 66.667-41 27.778 2.917 38.889 56.25 66.667 55 27.777-1.25 38.889-59.958 66.666-61 27.778-1.042 38.89 56.208 66.667 56 27.778-.208 38.889-59.292 66.667-57 27.777 2.292 40.972 63.208 66.666 68 25.695 4.792 44.861-35.625 56.667-45"/><path d="M10 360c11.806 1.875 30.972 16.292 56.667 9 25.694-7.292 38.889-49 66.666-44 27.778 5 38.89 68.208 66.667 68 27.778-.208 38.889-67.333 66.667-69 27.777-1.667 38.889 56.833 66.666 61 27.778 4.167 38.89-43.917 66.667-41 27.778 2.917 38.889 56.25 66.667 55 27.777-1.25 38.889-59.958 66.666-61 27.778-1.042 38.89 56.208 66.667 56 27.778-.208 38.889-59.292 66.667-57 27.777 2.292 40.972 63.208 66.666 68 25.695 4.792 44.861-35.625 56.667-45"/><path d="M10 325c11.806 1.875 30.972 16.292 56.667 9 25.694-7.292 38.889-49 66.666-44 27.778 5 38.89 68.208 66.667 68 27.778-.208 38.889-67.333 66.667-69 27.777-1.667 38.889 56.833 66.666 61 27.778 4.167 38.89-43.917 66.667-41 27.778 2.917 38.889 56.25 66.667 55 27.777-1.25 38.889-59.958 66.666-61 27.778-1.042 38.89 56.208 66.667 56 27.778-.208 38.889-59.292 66.667-57 27.777 2.292 40.972 63.208 66.666 68 25.695 4.792 44.861-35.625 56.667-45"/><path d="M10 290c11.806 1.875 30.972 16.292 56.667 9 25.694-7.292 38.889-49 66.666-44 27.778 5 38.89 68.208 66.667 68 27.778-.208 38.889-67.333 66.667-69 27.777-1.667 38.889 56.833 66.666 61 27.778 4.167 38.89-43.917 66.667-41 27.778 2.917 38.889 56.25 66.667 55 27.777-1.25 38.889-59.958 66.666-61 27.778-1.042 38.89 56.208 66.667 56 27.778-.208 38.889-59.292 66.667-57 27.777 2.292 40.972 63.208 66.666 68 25.695 4.792 44.861-35.625 56.667-45"/><path d="M10 255c11.806 1.875 30.972 16.292 56.667 9 25.694-7.292 38.889-49 66.666-44 27.778 5 38.89 68.208 66.667 68 27.778-.208 38.889-67.333 66.667-69 27.777-1.667 38.889 56.833 66.666 61 27.778 4.167 38.89-43.917 66.667-41 27.778 2.917 38.889 56.25 66.667 55 27.777-1.25 38.889-59.958 66.666-61 27.778-1.042 38.89 56.208 66.667 56 27.778-.208 38.889-59.292 66.667-57 27.777 2.292 40.972 63.208 66.666 68 25.695 4.792 44.861-35.625 56.667-45"/><path d="M10 220c11.806 1.875 30.972 16.292 56.667 9 25.694-7.292 38.889-49 66.666-44 27.778 5 38.89 68.208 66.667 68 27.778-.208 38.889-67.333 66.667-69 27.777-1.667 38.889 56.833 66.666 61 27.778 4.167 38.89-43.917 66.667-41 27.778 2.917 38.889 56.25 66.667 55 27.777-1.25 38.889-59.958 66.666-61 27.778-1.042 38.89 56.208 66.667 56 27.778-.208 38.889-59.292 66.667-57 27.777 2.292 40.972 63.208 66.666 68 25.695 4.792 44.861-35.625 56.667-45"/><path d="M10 185c11.806 1.875 30.972 16.292 56.667 9 25.694-7.292 38.889-49 66.666-44 27.778 5 38.89 68.208 66.667 68 27.778-.208 38.889-67.333 66.667-69 27.777-1.667 38.889 56.833 66.666 61 27.778 4.167 38.89-43.917 66.667-41 27.778 2.917 38.889 56.25 66.667 55 27.777-1.25 38.889-59.958 66.666-61 27.778-1.042 38.89 56.208 66.667 56 27.778-.208 38.889-59.292 66.667-57 27.777 2.292 40.972 63.208 66.666 68 25.695 4.792 44.861-35.625 56.667-45"/><path d="M10 150c11.806 1.875 30.972 16.292 56.667 9 25.694-7.292 38.889-49 66.666-44 27.778 5 38.89 68.208 66.667 68 27.778-.208 38.889-67.333 66.667-69 27.777-1.667 38.889 56.833 66.666 61 27.778 4.167 38.89-43.917 66.667-41 27.778 2.917 38.889 56.25 66.667 55 27.777-1.25 38.889-59.958 66.666-61 27.778-1.042 38.89 56.208 66.667 56 27.778-.208 38.889-59.292 66.667-57 27.777 2.292 40.972 63.208 66.666 68 25.695 4.792 44.861-35.625 56.667-45"/><path d="M10 115c11.806 1.875 30.972 16.292 56.667 9 25.694-7.292 38.889-49 66.666-44 27.778 5 38.89 68.208 66.667 68 27.778-.208 38.889-67.333 66.667-69 27.777-1.667 38.889 56.833 66.666 61 27.778 4.167 38.89-43.917 66.667-41 27.778 2.917 38.889 56.25 66.667 55 27.777-1.25 38.889-59.958 66.666-61 27.778-1.042 38.89 56.208 66.667 56 27.778-.208 38.889-59.292 66.667-57 27.777 2.292 40.972 63.208 66.666 68 25.695 4.792 44.861-35.625 56.667-45"/><path d="M10 80c11.806 1.875 30.972 16.292 56.667 9 25.694-7.292 38.889-49 66.666-44 27.778 5 38.89 68.208 66.667 68 27.778-.208 38.889-67.333 66.667-69 27.777-1.667 38.889 56.833 66.666 61 27.778 4.167 38.89-43.917 66.667-41 27.778 2.917 38.889 56.25 66.667 55 27.777-1.25 38.889-59.958 66.666-61 27.778-1.042 38.89 56.208 66.667 56 27.778-.208 38.889-59.292 66.667-57 27.777 2.292 40.972 63.208 66.666 68 25.695 4.792 44.861-35.625 56.667-45"/><path d="M10 45c11.806 1.875 30.972 16.292 56.667 9 25.694-7.292 38.889-49 66.666-44 27.778 5 38.89 68.208 66.667 68 27.778-.208 38.889-67.333 66.667-69 27.777-1.667 38.889 56.833 66.666 61 27.778 4.167 38.89-43.917 66.667-41 27.778 2.917 38.889 56.25 66.667 55 27.777-1.25 38.889-59.958 66.666-61 27.778-1.042 38.89 56.208 66.667 56 27.778-.208 38.889-59.292 66.667-57 27.777 2.292 40.972 63.208 66.666 68 25.695 4.792 44.861-35.625 56.667-45"/></g></svg>
